<svg width="1446" height="1318" viewBox="0 0 1446 1318" fill="none" xmlns="http://www.w3.org/2000/svg">
<g clip-path="url(#clip0_911_1082)">
<rect width="1446" height="1318" fill="#2C2C2C"/>
<rect x="860" y="21" width="270" height="15.8264" fill="#1E1E1E"/>
<rect x="860" y="55.1953" width="270" height="15.8264" fill="#1E1E1E"/>
<rect x="860" y="89.3867" width="270" height="15.8264" fill="#1E1E1E"/>
<rect x="860" y="123.582" width="270" height="15.8264" fill="#1E1E1E"/>
<rect x="860" y="157.777" width="270" height="15.8264" fill="#1E1E1E"/>
<rect x="860" y="191.969" width="270" height="15.8264" fill="#1E1E1E"/>
<rect x="860" y="226.164" width="270" height="15.8264" fill="#1E1E1E"/>
<rect x="860" y="260.355" width="270" height="15.8264" fill="#1E1E1E"/>
<rect x="860" y="294.551" width="270" height="15.8264" fill="#1E1E1E"/>
<rect x="860" y="328.746" width="270" height="15.8264" fill="#1E1E1E"/>
<rect x="860" y="362.938" width="270" height="15.8264" fill="#1E1E1E"/>
<rect x="860" y="397.133" width="270" height="15.8264" fill="#1E1E1E"/>
<rect x="860" y="431.328" width="270" height="15.8264" fill="#1E1E1E"/>
<rect x="860" y="533.906" width="270" height="15.8264" fill="#1E1E1E"/>
<rect x="860" y="670.684" width="270" height="15.8264" fill="#1E1E1E"/>
<rect x="860" y="602.297" width="270" height="15.8264" fill="#1E1E1E"/>
<rect x="860" y="704.879" width="270" height="15.8264" fill="#1E1E1E"/>
<rect x="860" y="773.266" width="270" height="15.8264" fill="#1E1E1E"/>
<rect x="860" y="875.848" width="270" height="15.8264" fill="#1E1E1E"/>
<rect x="860" y="465.52" width="270" height="15.8264" fill="#1E1E1E"/>
<rect x="860" y="499.715" width="270" height="15.8264" fill="#1E1E1E"/>
<rect x="860" y="568.102" width="270" height="15.8264" fill="#1E1E1E"/>
<rect x="860" y="636.488" width="270" height="15.8264" fill="#1E1E1E"/>
<rect x="860" y="739.07" width="270" height="15.8264" fill="#1E1E1E"/>
<rect x="860" y="807.461" width="270" height="15.8264" fill="#1E1E1E"/>
<rect x="860" y="841.652" width="270" height="15.8264" fill="#1E1E1E"/>
<rect x="860" y="910.039" width="270" height="15.8264" fill="#1E1E1E"/>
<rect x="860" y="944.234" width="270" height="15.8264" fill="#1E1E1E"/>
<rect x="860" y="978.43" width="270" height="15.8264" fill="#1E1E1E"/>
<rect x="860" y="1012.62" width="270" height="15.8264" fill="#1E1E1E"/>
<rect x="860" y="1046.82" width="270" height="15.8264" fill="#1E1E1E"/>
<rect x="860" y="1081.01" width="270" height="15.8264" fill="#1E1E1E"/>
<rect x="860" y="1115.2" width="270" height="15.8264" fill="#1E1E1E"/>
<rect x="860" y="1183.59" width="270" height="15.8264" fill="#1E1E1E"/>
<rect x="860" y="1149.4" width="270" height="15.8264" fill="#1E1E1E"/>
<rect x="860" y="1217.79" width="270" height="15.8264" fill="#1E1E1E"/>
<rect x="860" y="1251.98" width="270" height="15.8264" fill="#1E1E1E"/>
<rect x="860" y="1286.17" width="270" height="15.8264" fill="#1E1E1E"/>
<rect x="884.042" y="-8" width="20" height="847.758" fill="#1E1E1E"/>
<rect x="1087.85" y="-8" width="20" height="847.758" fill="#1E1E1E"/>
<rect x="884" y="499" width="20" height="847.758" fill="#1E1E1E"/>
<rect x="1087.81" y="499" width="20" height="847.758" fill="#1E1E1E"/>
<rect x="316" y="21" width="270" height="15.8264" fill="#1E1E1E"/>
<rect x="316" y="55.1953" width="270" height="15.8264" fill="#1E1E1E"/>
<rect x="316" y="89.3867" width="270" height="15.8264" fill="#1E1E1E"/>
<rect x="316" y="123.582" width="270" height="15.8264" fill="#1E1E1E"/>
<rect x="316" y="157.777" width="270" height="15.8264" fill="#1E1E1E"/>
<rect x="316" y="191.969" width="270" height="15.8264" fill="#1E1E1E"/>
<rect x="316" y="226.164" width="270" height="15.8264" fill="#1E1E1E"/>
<rect x="316" y="260.355" width="270" height="15.8264" fill="#1E1E1E"/>
<rect x="316" y="294.551" width="270" height="15.8264" fill="#1E1E1E"/>
<rect x="316" y="328.746" width="270" height="15.8264" fill="#1E1E1E"/>
<rect x="316" y="362.938" width="270" height="15.8264" fill="#1E1E1E"/>
<rect x="316" y="397.133" width="270" height="15.8264" fill="#1E1E1E"/>
<rect x="316" y="431.328" width="270" height="15.8264" fill="#1E1E1E"/>
<rect x="316" y="533.906" width="270" height="15.8264" fill="#1E1E1E"/>
<rect x="316" y="670.684" width="270" height="15.8264" fill="#1E1E1E"/>
<rect x="316" y="602.297" width="270" height="15.8264" fill="#1E1E1E"/>
<rect x="316" y="704.879" width="270" height="15.8264" fill="#1E1E1E"/>
<rect x="316" y="773.266" width="270" height="15.8264" fill="#1E1E1E"/>
<rect x="316" y="875.848" width="270" height="15.8264" fill="#1E1E1E"/>
<rect x="316" y="465.52" width="270" height="15.8264" fill="#1E1E1E"/>
<rect x="316" y="499.715" width="270" height="15.8264" fill="#1E1E1E"/>
<rect x="316" y="568.102" width="270" height="15.8264" fill="#1E1E1E"/>
<rect x="316" y="636.488" width="270" height="15.8264" fill="#1E1E1E"/>
<rect x="316" y="739.07" width="270" height="15.8264" fill="#1E1E1E"/>
<rect x="316" y="807.461" width="270" height="15.8264" fill="#1E1E1E"/>
<rect x="316" y="841.652" width="270" height="15.8264" fill="#1E1E1E"/>
<rect x="316" y="910.039" width="270" height="15.8264" fill="#1E1E1E"/>
<rect x="316" y="944.234" width="270" height="15.8264" fill="#1E1E1E"/>
<rect x="316" y="978.43" width="270" height="15.8264" fill="#1E1E1E"/>
<rect x="316" y="1012.62" width="270" height="15.8264" fill="#1E1E1E"/>
<rect x="316" y="1046.82" width="270" height="15.8264" fill="#1E1E1E"/>
<rect x="316" y="1081.01" width="270" height="15.8264" fill="#1E1E1E"/>
<rect x="316" y="1115.2" width="270" height="15.8264" fill="#1E1E1E"/>
<rect x="316" y="1183.59" width="270" height="15.8264" fill="#1E1E1E"/>
<rect x="316" y="1149.4" width="270" height="15.8264" fill="#1E1E1E"/>
<rect x="316" y="1217.79" width="270" height="15.8264" fill="#1E1E1E"/>
<rect x="316" y="1251.98" width="270" height="15.8264" fill="#1E1E1E"/>
<rect x="316" y="1286.17" width="270" height="15.8264" fill="#1E1E1E"/>
<rect x="340.042" y="-8" width="20" height="847.758" fill="#1E1E1E"/>
<rect x="543.854" y="-8" width="20" height="847.758" fill="#1E1E1E"/>
<rect x="340" y="499" width="20" height="847.758" fill="#1E1E1E"/>
<rect x="543.811" y="499" width="20" height="847.758" fill="#1E1E1E"/>
</g>
<defs>
<clipPath id="clip0_911_1082">
<rect width="1446" height="1318" fill="white"/>
</clipPath>
</defs>
</svg>
