<svg width="1446" height="1318" viewBox="0 0 1446 1318" fill="none" xmlns="http://www.w3.org/2000/svg">
<g clip-path="url(#clip0_911_1082)">
<rect width="1446" height="1318" fill="#3B3B3B"/>
<rect x="318" y="16" width="270" height="20" fill="#1E1E1E"/>
<rect x="318" y="59" width="270" height="20" fill="#1E1E1E"/>
<rect x="318" y="103" width="270" height="20" fill="#1E1E1E"/>
<rect x="318" y="147" width="270" height="20" fill="#1E1E1E"/>
<rect x="318" y="191" width="270" height="20" fill="#1E1E1E"/>
<rect x="318" y="235" width="270" height="20" fill="#1E1E1E"/>
<rect x="318" y="278" width="270" height="20" fill="#1E1E1E"/>
<rect x="318" y="322" width="270" height="20" fill="#1E1E1E"/>
<rect x="318" y="366" width="270" height="20" fill="#1E1E1E"/>
<rect x="318" y="410" width="270" height="20" fill="#1E1E1E"/>
<rect x="318" y="454" width="270" height="20" fill="#1E1E1E"/>
<rect x="318" y="497" width="270" height="20" fill="#1E1E1E"/>
<rect x="318" y="541" width="270" height="20" fill="#1E1E1E"/>
<rect x="318" y="585" width="270" height="20" fill="#1E1E1E"/>
<rect x="318" y="673" width="270" height="20" fill="#1E1E1E"/>
<rect x="318" y="629" width="270" height="20" fill="#1E1E1E"/>
<rect x="318" y="716" width="270" height="20" fill="#1E1E1E"/>
<rect x="318" y="760" width="270" height="20" fill="#1E1E1E"/>
<rect x="318" y="804" width="270" height="20" fill="#1E1E1E"/>
<rect x="318" y="541" width="270" height="20" fill="#1E1E1E"/>
<rect x="318" y="584" width="270" height="20" fill="#1E1E1E"/>
<rect x="318" y="628" width="270" height="20" fill="#1E1E1E"/>
<rect x="318" y="672" width="270" height="20" fill="#1E1E1E"/>
<rect x="318" y="716" width="270" height="20" fill="#1E1E1E"/>
<rect x="318" y="760" width="270" height="20" fill="#1E1E1E"/>
<rect x="318" y="803" width="270" height="20" fill="#1E1E1E"/>
<rect x="318" y="847" width="270" height="20" fill="#1E1E1E"/>
<rect x="318" y="891" width="270" height="20" fill="#1E1E1E"/>
<rect x="318" y="935" width="270" height="20" fill="#1E1E1E"/>
<rect x="318" y="979" width="270" height="20" fill="#1E1E1E"/>
<rect x="318" y="1022" width="270" height="20" fill="#1E1E1E"/>
<rect x="318" y="1066" width="270" height="20" fill="#1E1E1E"/>
<rect x="318" y="1110" width="270" height="20" fill="#1E1E1E"/>
<rect x="318" y="1198" width="270" height="20" fill="#1E1E1E"/>
<rect x="318" y="1154" width="270" height="20" fill="#1E1E1E"/>
<rect x="318" y="1241" width="270" height="20" fill="#1E1E1E"/>
<rect x="318" y="1285" width="270" height="20" fill="#1E1E1E"/>
<rect x="343.042" y="-13" width="20" height="847.758" fill="#1E1E1E"/>
<rect x="546.854" y="-13" width="20" height="847.758" fill="#1E1E1E"/>
<rect x="343" y="464" width="20" height="847.758" fill="#1E1E1E"/>
<rect x="546.811" y="464" width="20" height="847.758" fill="#1E1E1E"/>
<rect x="857" y="-3" width="270" height="20" fill="#1E1E1E"/>
<rect x="857" y="40" width="270" height="20" fill="#1E1E1E"/>
<rect x="857" y="84" width="270" height="20" fill="#1E1E1E"/>
<rect x="857" y="128" width="270" height="20" fill="#1E1E1E"/>
<rect x="857" y="172" width="270" height="20" fill="#1E1E1E"/>
<rect x="857" y="216" width="270" height="20" fill="#1E1E1E"/>
<rect x="857" y="259" width="270" height="20" fill="#1E1E1E"/>
<rect x="857" y="303" width="270" height="20" fill="#1E1E1E"/>
<rect x="857" y="347" width="270" height="20" fill="#1E1E1E"/>
<rect x="857" y="391" width="270" height="20" fill="#1E1E1E"/>
<rect x="857" y="435" width="270" height="20" fill="#1E1E1E"/>
<rect x="857" y="478" width="270" height="20" fill="#1E1E1E"/>
<rect x="857" y="522" width="270" height="20" fill="#1E1E1E"/>
<rect x="857" y="566" width="270" height="20" fill="#1E1E1E"/>
<rect x="857" y="654" width="270" height="20" fill="#1E1E1E"/>
<rect x="857" y="610" width="270" height="20" fill="#1E1E1E"/>
<rect x="857" y="697" width="270" height="20" fill="#1E1E1E"/>
<rect x="857" y="741" width="270" height="20" fill="#1E1E1E"/>
<rect x="857" y="785" width="270" height="20" fill="#1E1E1E"/>
<rect x="857" y="522" width="270" height="20" fill="#1E1E1E"/>
<rect x="857" y="565" width="270" height="20" fill="#1E1E1E"/>
<rect x="857" y="609" width="270" height="20" fill="#1E1E1E"/>
<rect x="857" y="653" width="270" height="20" fill="#1E1E1E"/>
<rect x="857" y="697" width="270" height="20" fill="#1E1E1E"/>
<rect x="857" y="741" width="270" height="20" fill="#1E1E1E"/>
<rect x="857" y="784" width="270" height="20" fill="#1E1E1E"/>
<rect x="857" y="828" width="270" height="20" fill="#1E1E1E"/>
<rect x="857" y="872" width="270" height="20" fill="#1E1E1E"/>
<rect x="857" y="916" width="270" height="20" fill="#1E1E1E"/>
<rect x="857" y="960" width="270" height="20" fill="#1E1E1E"/>
<rect x="857" y="1003" width="270" height="20" fill="#1E1E1E"/>
<rect x="857" y="1047" width="270" height="20" fill="#1E1E1E"/>
<rect x="857" y="1091" width="270" height="20" fill="#1E1E1E"/>
<rect x="857" y="1179" width="270" height="20" fill="#1E1E1E"/>
<rect x="857" y="1135" width="270" height="20" fill="#1E1E1E"/>
<rect x="857" y="1222" width="270" height="20" fill="#1E1E1E"/>
<rect x="857" y="1266" width="270" height="20" fill="#1E1E1E"/>
<rect x="857" y="1310" width="270" height="20" fill="#1E1E1E"/>
<rect x="882.042" y="-32" width="20" height="847.758" fill="#1E1E1E"/>
<rect x="1085.85" y="-32" width="20" height="847.758" fill="#1E1E1E"/>
<rect x="882" y="445" width="20" height="847.758" fill="#1E1E1E"/>
<rect x="1085.81" y="445" width="20" height="847.758" fill="#1E1E1E"/>
</g>
<defs>
<clipPath id="clip0_911_1082">
<rect width="1446" height="1318" fill="white"/>
</clipPath>
</defs>
</svg>
