<svg width="433" height="61" viewBox="0 0 433 61" fill="none" xmlns="http://www.w3.org/2000/svg">
<rect x="156" width="60" height="60" rx="30" fill="#FFC801"/>
<path d="M186.226 44.8408C181.905 44.8408 178.604 43.665 176.32 41.3135C173.258 38.4287 171.727 34.2725 171.727 28.8447C171.727 23.3076 173.258 19.1514 176.32 16.376C178.604 14.0244 181.905 12.8486 186.226 12.8486C190.546 12.8486 193.848 14.0244 196.131 16.376C199.18 19.1514 200.704 23.3076 200.704 28.8447C200.704 34.2725 199.18 38.4287 196.131 41.3135C193.848 43.665 190.546 44.8408 186.226 44.8408ZM192.193 36.7197C193.656 34.874 194.388 32.249 194.388 28.8447C194.388 25.4541 193.649 22.8359 192.173 20.9902C190.71 19.1309 188.728 18.2012 186.226 18.2012C183.724 18.2012 181.728 19.124 180.237 20.9697C178.747 22.8154 178.002 25.4404 178.002 28.8447C178.002 32.249 178.747 34.874 180.237 36.7197C181.728 38.5654 183.724 39.4883 186.226 39.4883C188.728 39.4883 190.717 38.5654 192.193 36.7197Z" fill="black"/>
<rect x="218.825" width="60" height="60" rx="30" fill="#FFC801"/>
<path d="M249.686 32.1465H243.165V44H236.992V13.7715H251.819C253.938 13.8125 255.565 14.0723 256.7 14.5508C257.848 15.0293 258.819 15.7334 259.612 16.6631C260.268 17.4287 260.788 18.2764 261.171 19.206C261.553 20.1357 261.745 21.1953 261.745 22.3848C261.745 23.8203 261.383 25.2353 260.658 26.6299C259.933 28.0107 258.737 28.9883 257.069 29.5625C258.464 30.123 259.448 30.9228 260.022 31.9619C260.61 32.9873 260.904 34.5596 260.904 36.6787V38.709C260.904 40.0898 260.959 41.0264 261.068 41.5186C261.232 42.2979 261.615 42.8721 262.217 43.2412V44H255.264C255.073 43.3301 254.936 42.79 254.854 42.3799C254.69 41.5322 254.601 40.6641 254.588 39.7754L254.547 36.9658C254.519 35.0381 254.164 33.7529 253.48 33.1103C252.81 32.4678 251.546 32.1465 249.686 32.1465ZM253.521 26.6504C254.779 26.0762 255.408 24.9414 255.408 23.2461C255.408 21.4141 254.8 20.1836 253.583 19.5547C252.899 19.1992 251.874 19.0215 250.507 19.0215H243.165V27.1426H250.322C251.744 27.1426 252.81 26.9785 253.521 26.6504Z" fill="black"/>
</svg>
