<svg width="348" height="19" viewBox="0 0 348 19" fill="none" xmlns="http://www.w3.org/2000/svg">
<rect width="18.4091" height="18.4091" rx="9.20456" fill="#FFC801"/>
<path d="M6.59333 13.7051H4.78748V4.4304H7.60637L9.29268 11.723L10.9664 4.4304H13.7538V13.7051H11.948V7.43177C11.948 7.25139 11.9501 6.99971 11.9543 6.67671C11.9585 6.34951 11.9606 6.09783 11.9606 5.92165L10.205 13.7051H8.32368L6.58075 5.92165C6.58075 6.09783 6.58285 6.34951 6.58704 6.67671C6.59124 6.99971 6.59333 7.25139 6.59333 7.43177V13.7051Z" fill="black"/>
<rect x="19.2759" width="18.4091" height="18.4091" rx="9.20456" fill="#FFC801"/>
<path d="M32.2621 4.4304V6.07266H29.4872V13.7051H27.5366V6.07266H24.7492V4.4304H32.2621Z" fill="black"/>
<rect x="38.5518" width="18.4091" height="18.4091" rx="9.20456" fill="#FFC801"/>
<path d="M49.5119 11.7985H46.0952L45.4534 13.7051H43.4273L46.737 4.4304H48.9267L52.2112 13.7051H50.1096L49.5119 11.7985ZM48.9707 10.2003L47.813 6.55086L46.6175 10.2003H48.9707Z" fill="black"/>
<rect x="71.1216" width="18.4091" height="18.4091" rx="9.20456" fill="#E70000"/>
<path d="M84.1518 13.7051H82.2138L78.4259 7.11716V13.7051H76.6201V4.4304H78.6525L82.346 10.9051V4.4304H84.1518V13.7051Z" fill="white"/>
<rect x="90.3975" width="18.4091" height="18.4091" rx="9.20456" fill="#E70000"/>
<path d="M101.358 11.7985H97.9409L97.2991 13.7051H95.273L98.5827 4.4304H100.772L104.057 13.7051H101.955L101.358 11.7985ZM100.816 10.2003L99.6587 6.55086L98.4632 10.2003H100.816Z" fill="white"/>
<rect x="109.673" width="18.4091" height="18.4091" rx="9.20456" fill="#E70000"/>
<path d="M120.69 10.1311V4.4304H122.66V10.1311C122.66 11.1169 122.506 11.8845 122.2 12.4341C121.63 13.4408 120.541 13.9442 118.935 13.9442C117.328 13.9442 116.237 13.4408 115.663 12.4341C115.356 11.8845 115.203 11.1169 115.203 10.1311V4.4304H117.173V10.1311C117.173 10.7687 117.248 11.2343 117.399 11.528C117.634 12.0481 118.146 12.3082 118.935 12.3082C119.719 12.3082 120.229 12.0481 120.464 11.528C120.615 11.2343 120.69 10.7687 120.69 10.1311Z" fill="white"/>
<rect x="128.949" width="18.4091" height="18.4091" rx="9.20456" fill="#E70000"/>
<path d="M139.809 13.4786C139.297 13.7932 138.668 13.9505 137.921 13.9505C136.692 13.9505 135.685 13.5247 134.901 12.6732C134.083 11.8174 133.674 10.6471 133.674 9.16212C133.674 7.66039 134.087 6.45648 134.913 5.55041C135.74 4.64433 136.832 4.1913 138.192 4.1913C139.37 4.1913 140.316 4.49122 141.029 5.09108C141.747 5.68674 142.158 6.43131 142.263 7.3248H140.356C140.209 6.69139 139.851 6.24884 139.28 5.99715C138.961 5.85872 138.607 5.78951 138.217 5.78951C137.47 5.78951 136.856 6.07266 136.373 6.63896C135.895 7.20106 135.656 8.0484 135.656 9.181C135.656 10.322 135.916 11.1295 136.436 11.6035C136.956 12.0775 137.548 12.3145 138.21 12.3145C138.861 12.3145 139.393 12.1278 139.809 11.7545C140.224 11.377 140.48 10.8841 140.576 10.2758H138.431V8.72796H142.294V13.7051H141.01L140.815 12.5473C140.442 12.9878 140.106 13.2982 139.809 13.4786Z" fill="white"/>
<rect x="148.225" width="18.4091" height="18.4091" rx="9.20456" fill="#E70000"/>
<path d="M159.286 13.7051V9.56482H155.662V13.7051H153.742V4.4304H155.662V7.96661H159.286V4.4304H161.211V13.7051H159.286Z" fill="white"/>
<rect x="167.501" width="18.4091" height="18.4091" rx="9.20456" fill="#E70000"/>
<path d="M180.488 4.4304V6.07266H177.713V13.7051H175.762V6.07266H172.975V4.4304H180.488Z" fill="white"/>
<rect x="186.777" width="18.4091" height="18.4091" rx="9.20456" fill="#E70000"/>
<path d="M200.154 4.4304L197.052 10.2192V13.7051H195.114V10.2192L191.905 4.4304H194.189L196.114 8.46998L197.958 4.4304H200.154Z" fill="white"/>
<rect x="219.347" width="18.4091" height="18.4091" rx="9.20456" fill="#FFC801"/>
<path d="M228.621 13.9631C227.295 13.9631 226.282 13.6023 225.582 12.8808C224.642 11.9957 224.172 10.7205 224.172 9.05515C224.172 7.35626 224.642 6.08105 225.582 5.22951C226.282 4.508 227.295 4.14725 228.621 4.14725C229.947 4.14725 230.96 4.508 231.66 5.22951C232.596 6.08105 233.063 7.35626 233.063 9.05515C233.063 10.7205 232.596 11.9957 231.66 12.8808C230.96 13.6023 229.947 13.9631 228.621 13.9631ZM230.452 11.4714C230.901 10.9051 231.125 10.0997 231.125 9.05515C231.125 8.01485 230.899 7.21154 230.446 6.64525C229.997 6.07476 229.389 5.78951 228.621 5.78951C227.853 5.78951 227.241 6.07266 226.784 6.63896C226.326 7.20525 226.098 8.01065 226.098 9.05515C226.098 10.0997 226.326 10.9051 226.784 11.4714C227.241 12.0376 227.853 12.3208 228.621 12.3208C229.389 12.3208 229.999 12.0376 230.452 11.4714Z" fill="black"/>
<rect x="238.623" width="18.4091" height="18.4091" rx="9.20456" fill="#FFC801"/>
<path d="M248.092 10.0682H246.091V13.7051H244.197V4.4304H248.746C249.396 4.44298 249.896 4.52268 250.244 4.6695C250.596 4.81632 250.894 5.03235 251.137 5.3176C251.339 5.5525 251.498 5.81258 251.616 6.09783C251.733 6.38307 251.792 6.70817 251.792 7.07312C251.792 7.51357 251.681 7.94773 251.458 8.3756C251.236 8.79927 250.869 9.0992 250.357 9.27538C250.785 9.44737 251.087 9.69276 251.263 10.0116C251.444 10.3262 251.534 10.8086 251.534 11.4588V12.0817C251.534 12.5054 251.551 12.7927 251.584 12.9437C251.634 13.1828 251.752 13.359 251.936 13.4723V13.7051H249.803C249.745 13.4995 249.703 13.3338 249.678 13.208C249.627 12.9479 249.6 12.6815 249.596 12.4089L249.583 11.5469C249.575 10.9554 249.466 10.5611 249.256 10.3639C249.05 10.1668 248.662 10.0682 248.092 10.0682ZM249.269 8.38189C249.654 8.20571 249.847 7.85754 249.847 7.33739C249.847 6.77529 249.661 6.39775 249.287 6.20479C249.078 6.09573 248.763 6.0412 248.344 6.0412H246.091V8.5329H248.287C248.723 8.5329 249.05 8.48257 249.269 8.38189Z" fill="black"/>
<rect x="271.193" width="18.4091" height="18.4091" rx="9.20456" fill="#11760E"/>
<path d="M284.223 13.7051H282.285L278.497 7.11716V13.7051H276.691V4.4304H278.724L282.417 10.9051V4.4304H284.223V13.7051Z" fill="white"/>
<rect x="290.47" width="18.4091" height="18.4091" rx="9.20456" fill="#11760E"/>
<path d="M298.711 4.4304H300.637V13.7051H298.711V4.4304Z" fill="white"/>
<rect x="309.745" width="18.4091" height="18.4091" rx="9.20456" fill="#11760E"/>
<path d="M321.818 13.0129C321.126 13.6464 320.241 13.9631 319.163 13.9631C317.829 13.9631 316.781 13.5352 316.017 12.6795C315.254 11.8195 314.872 10.6408 314.872 9.14324C314.872 7.52406 315.306 6.27611 316.174 5.39939C316.929 4.63594 317.89 4.25422 319.056 4.25422C320.617 4.25422 321.758 4.76598 322.479 5.78951C322.878 6.3642 323.092 6.94098 323.121 7.51986H321.183C321.057 7.07521 320.896 6.73963 320.698 6.51311C320.346 6.11041 319.824 5.90906 319.132 5.90906C318.427 5.90906 317.871 6.19431 317.464 6.7648C317.057 7.3311 316.854 8.1344 316.854 9.17471C316.854 10.215 317.068 10.9952 317.496 11.5154C317.928 12.0314 318.475 12.2893 319.138 12.2893C319.818 12.2893 320.336 12.067 320.692 11.6224C320.889 11.3833 321.053 11.0246 321.183 10.5464H323.102C322.934 11.5573 322.506 12.3795 321.818 13.0129Z" fill="white"/>
<rect x="329.021" width="18.4091" height="18.4091" rx="9.20456" fill="#11760E"/>
<path d="M341.365 9.65291H336.86V12.0376H341.995V13.7051H334.966V4.4304H341.768V6.07266H336.86V8.04211H341.365V9.65291Z" fill="white"/>
</svg>
