<svg width="447" height="491" viewBox="0 0 447 491" fill="none" xmlns="http://www.w3.org/2000/svg">
<g clip-path="url(#clip0_909_1017)">
<path d="M158.51 1H288.481C375.472 1 445.991 71.5197 445.991 158.51V489.538H1V158.51C1 71.5196 71.5196 1 158.51 1Z" fill="#D9D9D9" stroke="black" stroke-width="2"/>
<rect x="161.097" y="98.3398" width="125.67" height="328.441" fill="#BAC0C2" stroke="black" stroke-width="2"/>
<rect x="1" y="446.711" width="444.991" height="42.8272" fill="#BAC0C2" stroke="black" stroke-width="2"/>
<rect x="1" y="468.484" width="444.991" height="21.054" fill="#BAC0C2" stroke="black" stroke-width="2"/>
<rect x="161.097" y="36.8633" width="126.078" height="41.5464" fill="white" stroke="black" stroke-width="2"/>
<rect x="186.712" y="127.797" width="74.8466" height="170.905" rx="14.851" fill="#D6EFF8" stroke="black" stroke-width="2"/>
<path d="M141.166 36.8678V365.304H80.9292L33.0195 293.637V146.01C33.0195 86.0637 81.3467 37.4046 141.166 36.8678Z" fill="#BAC0C2" stroke="black" stroke-width="2"/>
<path d="M303.263 36.8679V365.304H361.335L407.568 293.645V142.168C407.568 84.3434 360.961 37.4047 303.263 36.8679Z" fill="#BAC0C2" stroke="black" stroke-width="2"/>
<rect x="322" y="128" width="65" height="78" rx="14.851" fill="#838383" stroke="#3B3B3B" stroke-width="2"/>
<circle cx="86.4529" cy="167.141" r="39.3445" fill="#E70000" stroke="black" stroke-width="2"/>
<mask id="path-11-inside-1_909_1017" fill="white">
<path d="M393.199 403.297C393.199 381.011 388.809 358.944 380.281 338.354C371.752 317.765 359.252 299.057 343.494 283.299C327.735 267.54 309.027 255.04 288.438 246.512C267.849 237.983 245.781 233.594 223.495 233.594C201.21 233.594 179.142 237.983 158.553 246.512C137.964 255.04 119.256 267.54 103.497 283.299C87.739 299.057 75.2387 317.765 66.7103 338.354C58.182 358.944 53.7925 381.011 53.7925 403.297L68.8584 403.297C68.8584 382.99 72.8582 362.881 80.6295 344.12C88.4007 325.358 99.7912 308.311 114.151 293.952C128.51 279.592 145.557 268.202 164.318 260.431C183.08 252.659 203.188 248.66 223.495 248.66C243.803 248.66 263.911 252.659 282.673 260.431C301.434 268.202 318.481 279.592 332.84 293.952C347.2 308.311 358.59 325.358 366.362 344.12C374.133 362.881 378.133 382.99 378.133 403.297H393.199Z"/>
</mask>
<path d="M393.199 403.297C393.199 381.011 388.809 358.944 380.281 338.354C371.752 317.765 359.252 299.057 343.494 283.299C327.735 267.54 309.027 255.04 288.438 246.512C267.849 237.983 245.781 233.594 223.495 233.594C201.21 233.594 179.142 237.983 158.553 246.512C137.964 255.04 119.256 267.54 103.497 283.299C87.739 299.057 75.2387 317.765 66.7103 338.354C58.182 358.944 53.7925 381.011 53.7925 403.297L68.8584 403.297C68.8584 382.99 72.8582 362.881 80.6295 344.12C88.4007 325.358 99.7912 308.311 114.151 293.952C128.51 279.592 145.557 268.202 164.318 260.431C183.08 252.659 203.188 248.66 223.495 248.66C243.803 248.66 263.911 252.659 282.673 260.431C301.434 268.202 318.481 279.592 332.84 293.952C347.2 308.311 358.59 325.358 366.362 344.12C374.133 362.881 378.133 382.99 378.133 403.297H393.199Z" fill="#838383" stroke="black" stroke-width="4" mask="url(#path-11-inside-1_909_1017)"/>
<path d="M172.289 52.7248H179.376V54.3355H176.638V64H175.027V54.3355H172.289V52.7248ZM188.068 64H186.296L184.25 59.4899H182.591V64H180.98V52.7248H185.168C186.779 52.7248 188.068 54.0134 188.068 55.6241V56.5906C188.068 57.9275 187.182 59.0389 185.958 59.3772L188.068 64ZM182.591 57.8792H185.168C185.893 57.8792 186.457 57.3154 186.457 56.5906V55.6241C186.457 54.8993 185.893 54.3355 185.168 54.3355H182.591V57.8792ZM193.86 62.3731C194.569 62.3731 195.149 61.7933 195.149 61.0846V55.6241C195.149 54.8993 194.585 54.3355 193.86 54.3355H192.571C191.847 54.3355 191.283 54.9154 191.283 55.6241V61.0846C191.283 61.7933 191.863 62.3731 192.571 62.3731H193.86ZM189.672 61.0846V55.6241C189.672 54.0134 190.977 52.7248 192.571 52.7248H193.86C195.471 52.7248 196.759 54.0134 196.759 55.6241V61.0846C196.759 62.6792 195.471 64 193.86 64H192.571C190.977 64 189.672 62.6792 189.672 61.0846ZM205.451 61.0846C205.451 62.6792 204.146 64 202.552 64H201.263C199.652 64 198.364 62.6792 198.364 61.0846V52.7248H199.975V61.0846C199.975 61.7933 200.554 62.3731 201.263 62.3731H202.552C203.26 62.3731 203.84 61.7933 203.84 61.0846V52.7248H205.451V61.0846ZM213.821 56.2684C213.821 57.0094 213.547 57.702 213.08 58.2013C213.724 58.7329 214.143 59.5382 214.143 60.4564V61.1007C214.143 62.7114 212.854 64 211.243 64H207.055V52.7248H210.921C212.532 52.7248 213.821 54.0134 213.821 55.6241V56.2684ZM208.666 62.3893H211.243C211.968 62.3893 212.532 61.8255 212.532 61.1007V60.4564C212.532 59.7315 211.968 59.1678 211.243 59.1678H208.666V62.3893ZM208.666 57.557H210.921C211.646 57.557 212.21 56.9933 212.21 56.2684V55.6241C212.21 54.8993 211.646 54.3355 210.921 54.3355H208.666V57.557ZM217.358 52.7248V62.3893H222.834V64H215.747V52.7248H217.358ZM231.526 52.7248V54.3355H226.05V57.2832H230.882V58.8939H226.05V62.3893H231.526V64H224.439V52.7248H231.526ZM244.931 59.4577L243.433 56.2684V64H241.822V52.7248H243.433L245.366 56.9288L247.299 52.7248H248.91V64H247.299V56.2684L245.801 59.4577H244.931ZM252.125 64H250.514V52.7248H252.125V57.557H252.737L255.701 52.7248H257.601L254.138 58.3624L257.601 64H255.701L252.737 59.1678H252.125V64ZM266.293 64H264.521L262.476 59.4899H260.817V64H259.206V52.7248H263.394C265.004 52.7248 266.293 54.0134 266.293 55.6241V56.5906C266.293 57.9275 265.407 59.0389 264.183 59.3772L266.293 64ZM260.817 57.8792H263.394C264.119 57.8792 264.682 57.3154 264.682 56.5906V55.6241C264.682 54.8993 264.119 54.3355 263.394 54.3355H260.817V57.8792ZM270.555 62.3893H272.327V64H270.555V62.3893Z" fill="black"/>
</g>
<defs>
<clipPath id="clip0_909_1017">
<rect width="447" height="491" fill="white"/>
</clipPath>
</defs>
</svg>
