<svg width="434" height="60" viewBox="0 0 434 60" fill="none" xmlns="http://www.w3.org/2000/svg">
<rect width="59.4799" height="59.4799" rx="29.74" fill="#E70000"/>
<path d="M42.1004 43.7402H35.8388L23.6001 22.4547V43.7402H17.7653V13.7737H24.332L36.2657 34.6934V13.7737H42.1004V43.7402Z" fill="white"/>
<rect x="62.2803" width="59.4799" height="59.4799" rx="29.74" fill="#E70000"/>
<path d="M97.6921 37.5802H86.6529L84.5792 43.7402H78.0329L88.7266 13.7737H95.8014L106.414 43.7402H99.6235L97.6921 37.5802ZM95.9437 32.4164L92.203 20.625L88.3403 32.4164H95.9437Z" fill="white"/>
<rect x="124.561" width="59.4799" height="59.4799" rx="29.74" fill="#E70000"/>
<path d="M160.156 32.1928V13.7737H166.519V32.1928C166.519 35.3778 166.024 37.8581 165.035 39.6336C163.192 42.8864 159.675 44.5128 154.484 44.5128C149.293 44.5128 145.769 42.8864 143.912 39.6336C142.923 37.8581 142.428 35.3778 142.428 32.1928V13.7737H148.791V32.1928C148.791 34.2529 149.035 35.7573 149.523 36.706C150.282 38.3867 151.936 39.227 154.484 39.227C157.018 39.227 158.665 38.3867 159.424 36.706C159.912 35.7573 160.156 34.2529 160.156 32.1928Z" fill="white"/>
<rect x="186.841" width="59.4799" height="59.4799" rx="29.74" fill="#E70000"/>
<path d="M221.928 43.0084C220.274 44.0249 218.241 44.5331 215.829 44.5331C211.858 44.5331 208.605 43.1574 206.07 40.4061C203.428 37.6412 202.106 33.8598 202.106 29.0619C202.106 24.2098 203.441 20.32 206.111 17.3925C208.781 14.465 212.312 13.0012 216.703 13.0012C220.512 13.0012 223.568 13.9703 225.872 15.9084C228.19 17.833 229.518 20.2387 229.857 23.1256H223.697C223.222 21.079 222.063 19.6491 220.22 18.8359C219.19 18.3887 218.045 18.165 216.784 18.165C214.372 18.165 212.386 19.0799 210.828 20.9096C209.283 22.7257 208.51 25.4635 208.51 29.1229C208.51 32.8094 209.35 35.4185 211.031 36.95C212.712 38.4815 214.623 39.2473 216.764 39.2473C218.865 39.2473 220.586 38.6442 221.928 37.4379C223.27 36.2181 224.096 34.6256 224.408 32.6604H217.476V27.6592H229.958V43.7402H225.811L225.181 39.9995C223.974 41.4226 222.89 42.4256 221.928 43.0084Z" fill="white"/>
<rect x="249.122" width="59.4799" height="59.4799" rx="29.74" fill="#E70000"/>
<path d="M284.859 43.7402V30.3631H273.149V43.7402H266.948V13.7737H273.149V25.1992H284.859V13.7737H291.08V43.7402H284.859Z" fill="white"/>
<rect x="311.402" width="59.4799" height="59.4799" rx="29.74" fill="#E70000"/>
<path d="M353.36 13.7737V19.0799H344.395V43.7402H338.093V19.0799H329.086V13.7737H353.36Z" fill="white"/>
<rect x="373.683" width="59.4799" height="59.4799" rx="29.74" fill="#E70000"/>
<path d="M416.901 13.7737L406.878 32.4774V43.7402H400.617V32.4774L390.248 13.7737H397.628L403.849 26.8256L409.806 13.7737H416.901Z" fill="white"/>
</svg>
