<svg width="433" height="61" viewBox="0 0 433 61" fill="none" xmlns="http://www.w3.org/2000/svg">
<rect x="94" y="1" width="59.4799" height="59.4799" rx="29.74" fill="#11760E"/>
<path d="M136.1 44.7383H129.839L117.6 23.4527V44.7383H111.765V14.7718H118.332L130.266 35.6914V14.7718H136.1V44.7383Z" fill="white"/>
<rect x="156.28" y="1" width="59.4799" height="59.4799" rx="29.74" fill="#11760E"/>
<path d="M182.91 14.7718H189.131V44.7383H182.91V14.7718Z" fill="white"/>
<rect x="218.561" y="1" width="59.4799" height="59.4799" rx="29.74" fill="#11760E"/>
<path d="M257.571 42.502C255.335 44.5485 252.475 45.5718 248.992 45.5718C244.682 45.5718 241.294 44.1894 238.827 41.4245C236.36 38.646 235.127 34.8375 235.127 29.999C235.127 24.7674 236.53 20.7353 239.335 17.9026C241.775 15.4359 244.879 14.2025 248.646 14.2025C253.688 14.2025 257.375 15.8561 259.706 19.1631C260.994 21.0199 261.685 22.8835 261.78 24.7538H255.518C255.111 23.3172 254.59 22.2329 253.953 21.501C252.814 20.1999 251.127 19.5493 248.89 19.5493C246.613 19.5493 244.818 20.471 243.503 22.3142C242.188 24.1439 241.531 26.7394 241.531 30.1006C241.531 33.4619 242.222 35.9828 243.605 37.6634C245.001 39.3305 246.769 40.164 248.911 40.164C251.106 40.164 252.78 39.4457 253.932 38.009C254.569 37.2365 255.098 36.0777 255.518 34.5326H261.719C261.176 37.799 259.794 40.4554 257.571 42.502Z" fill="white"/>
<rect x="280.841" y="1" width="59.4799" height="59.4799" rx="29.74" fill="#11760E"/>
<path d="M320.726 31.6457H306.169V39.3508H322.759V44.7383H300.05V14.7718H322.027V20.0779H306.169V26.4412H320.726V31.6457Z" fill="white"/>
</svg>
