<svg width="247" height="60" viewBox="0 0 247 60" fill="none" xmlns="http://www.w3.org/2000/svg">
<rect width="59.4799" height="59.4799" rx="29.74" fill="#11760E"/>
<path d="M42.1004 43.7402H35.8388L23.6001 22.4547V43.7402H17.7653V13.7737H24.332L36.2657 34.6934V13.7737H42.1004V43.7402Z" fill="white"/>
<rect x="62.2803" width="59.4799" height="59.4799" rx="29.74" fill="#11760E"/>
<path d="M88.9095 13.7737H95.1305V43.7402H88.9095V13.7737Z" fill="white"/>
<rect x="124.561" width="59.4799" height="59.4799" rx="29.74" fill="#11760E"/>
<path d="M163.571 41.5039C161.335 43.5505 158.475 44.5738 154.992 44.5738C150.682 44.5738 147.294 43.1913 144.827 40.4264C142.36 37.648 141.127 33.8395 141.127 29.0009C141.127 23.7693 142.53 19.7372 145.335 16.9046C147.775 14.4378 150.879 13.2045 154.646 13.2045C159.688 13.2045 163.375 14.858 165.706 18.165C166.994 20.0218 167.685 21.8854 167.78 23.7558H161.518C161.111 22.3191 160.59 21.2349 159.953 20.503C158.814 19.2019 157.127 18.5513 154.89 18.5513C152.613 18.5513 150.818 19.4729 149.503 21.3162C148.188 23.1459 147.531 25.7414 147.531 29.1026C147.531 32.4638 148.222 34.9848 149.605 36.6654C151.001 38.3324 152.769 39.166 154.911 39.166C157.106 39.166 158.78 38.4476 159.932 37.011C160.569 36.2384 161.098 35.0796 161.518 33.5345H167.719C167.176 36.8009 165.794 39.4574 163.571 41.5039Z" fill="white"/>
<rect x="186.841" width="59.4799" height="59.4799" rx="29.74" fill="#11760E"/>
<path d="M226.726 30.6477H212.169V38.3528H228.759V43.7402H206.05V13.7737H228.027V19.0799H212.169V25.4432H226.726V30.6477Z" fill="white"/>
</svg>
