<svg width="447" height="491" viewBox="0 0 447 491" fill="none" xmlns="http://www.w3.org/2000/svg">
<path d="M158.51 1H288.481C375.472 1 445.991 71.5197 445.991 158.51V489.538H1V158.51C1 71.5196 71.5196 1 158.51 1Z" fill="#D9D9D9" stroke="black" stroke-width="2"/>
<rect x="161.097" y="98.3398" width="125.67" height="328.441" fill="#BAC0C2" stroke="black" stroke-width="2"/>
<rect x="1" y="446.711" width="444.991" height="42.8272" fill="#BAC0C2" stroke="black" stroke-width="2"/>
<rect x="1" y="468.484" width="444.991" height="21.054" fill="#BAC0C2" stroke="black" stroke-width="2"/>
<rect x="161.097" y="36.8633" width="126.078" height="41.5464" fill="white" stroke="black" stroke-width="2"/>
<rect x="186.712" y="127.797" width="74.8466" height="170.905" rx="14.851" fill="#D6EFF8" stroke="black" stroke-width="2"/>
<path d="M141.166 36.8678V365.304H80.9292L33.0195 293.637V146.01C33.0195 86.0637 81.3467 37.4046 141.166 36.8678Z" fill="#BAC0C2" stroke="black" stroke-width="2"/>
<path d="M303.263 36.8679V365.304H361.335L407.568 293.645V142.168C407.568 84.3434 360.961 37.4047 303.263 36.8679Z" fill="#BAC0C2" stroke="black" stroke-width="2"/>
<rect x="322" y="128" width="65" height="78" rx="14.851" fill="#838383" stroke="black" stroke-width="2"/>
<circle cx="86.4529" cy="167.141" r="39.3445" fill="#11760E" stroke="black" stroke-width="2"/>
<mask id="path-11-inside-1_879_903" fill="white">
<path d="M393.199 243.297C393.199 265.583 388.809 287.65 380.281 308.24C371.752 328.829 359.252 347.537 343.494 363.295C327.735 379.054 309.027 391.554 288.438 400.082C267.849 408.611 245.781 413 223.495 413C201.21 413 179.142 408.61 158.553 400.082C137.964 391.554 119.256 379.054 103.497 363.295C87.739 347.537 75.2387 328.829 66.7103 308.24C58.182 287.65 53.7925 265.583 53.7925 243.297L68.8584 243.297C68.8584 263.604 72.8582 283.713 80.6295 302.474C88.4007 321.235 99.7912 338.283 114.151 352.642C128.51 367.001 145.557 378.392 164.318 386.163C183.08 393.934 203.188 397.934 223.495 397.934C243.803 397.934 263.911 393.934 282.673 386.163C301.434 378.392 318.481 367.001 332.84 352.642C347.2 338.283 358.59 321.235 366.362 302.474C374.133 283.713 378.133 263.604 378.133 243.297H393.199Z"/>
</mask>
<path d="M393.199 243.297C393.199 265.583 388.809 287.65 380.281 308.24C371.752 328.829 359.252 347.537 343.494 363.295C327.735 379.054 309.027 391.554 288.438 400.082C267.849 408.611 245.781 413 223.495 413C201.21 413 179.142 408.61 158.553 400.082C137.964 391.554 119.256 379.054 103.497 363.295C87.739 347.537 75.2387 328.829 66.7103 308.24C58.182 287.65 53.7925 265.583 53.7925 243.297L68.8584 243.297C68.8584 263.604 72.8582 283.713 80.6295 302.474C88.4007 321.235 99.7912 338.283 114.151 352.642C128.51 367.001 145.557 378.392 164.318 386.163C183.08 393.934 203.188 397.934 223.495 397.934C243.803 397.934 263.911 393.934 282.673 386.163C301.434 378.392 318.481 367.001 332.84 352.642C347.2 338.283 358.59 321.235 366.362 302.474C374.133 283.713 378.133 263.604 378.133 243.297H393.199Z" fill="#838383" stroke="black" stroke-width="4" mask="url(#path-11-inside-1_879_903)"/>
<path d="M175.349 57.9275H179.376V61.0846C179.376 62.6792 178.087 64 176.477 64H175.188C173.593 64 172.289 62.6792 172.289 61.0846V55.6241C172.289 54.0134 173.593 52.7248 175.188 52.7248H176.477C178.087 52.7248 179.376 54.0134 179.376 55.6241V56.51H177.765V55.6241C177.765 54.8993 177.201 54.3355 176.477 54.3355H175.188C174.463 54.3355 173.899 54.9154 173.899 55.6241V61.0846C173.899 61.7933 174.479 62.3731 175.188 62.3731H176.477C177.185 62.3731 177.765 61.7933 177.765 61.0846V59.5382H175.349V57.9275ZM188.068 64H186.296L184.25 59.4899H182.591V64H180.98V52.7248H185.168C186.779 52.7248 188.068 54.0134 188.068 55.6241V56.5906C188.068 57.9275 187.182 59.0389 185.958 59.3772L188.068 64ZM182.591 57.8792H185.168C185.893 57.8792 186.457 57.3154 186.457 56.5906V55.6241C186.457 54.8993 185.893 54.3355 185.168 54.3355H182.591V57.8792ZM196.759 52.7248V54.3355H191.283V57.2832H196.115V58.8939H191.283V62.3893H196.759V64H189.672V52.7248H196.759ZM199.975 64H198.364V60.2953L201.102 52.7248H202.713L205.451 60.2953V64H203.84V61.3906H199.975V64ZM200.264 59.7799H203.55L201.924 55.2698H201.891L200.264 59.7799ZM207.055 52.7248H214.143V54.3355H211.404V64H209.794V54.3355H207.055V52.7248ZM224.439 60.3597H226.05V61.004C226.05 61.7611 226.678 62.3893 227.435 62.3893H228.514C229.336 62.3893 229.915 61.8738 229.915 61.1651C229.915 58.9423 224.6 58.459 224.6 55.3986C224.6 53.8201 225.84 52.7248 227.596 52.7248H228.353C230.012 52.7248 231.365 54.0617 231.365 55.7208V56.204H229.754V55.7208C229.754 54.9476 229.126 54.3355 228.353 54.3355H227.596C226.726 54.3355 226.211 54.7382 226.211 55.3986C226.211 57.106 231.526 57.7664 231.526 61.1651C231.526 62.7758 230.221 64 228.514 64H227.435C225.776 64 224.439 62.6631 224.439 61.004V60.3597ZM233.131 52.7248H240.218V54.3355H237.48V64H235.869V54.3355H233.131V52.7248ZM248.91 64H247.138L245.092 59.4899H243.433V64H241.822V52.7248H246.01C247.621 52.7248 248.91 54.0134 248.91 55.6241V56.5906C248.91 57.9275 248.024 59.0389 246.8 59.3772L248.91 64ZM243.433 57.8792H246.01C246.735 57.8792 247.299 57.3154 247.299 56.5906V55.6241C247.299 54.8993 246.735 54.3355 246.01 54.3355H243.433V57.8792ZM257.601 52.7248V54.3355H252.125V57.2832H256.957V58.8939H252.125V62.3893H257.601V64H250.514V52.7248H257.601ZM266.293 52.7248V54.3355H260.817V57.2832H265.649V58.8939H260.817V62.3893H266.293V64H259.206V52.7248H266.293ZM267.898 52.7248H274.985V54.3355H272.247V64H270.636V54.3355H267.898V52.7248Z" fill="black"/>
</svg>
