<svg width="1200" height="630" viewBox="0 0 1200 630" fill="none" xmlns="http://www.w3.org/2000/svg">
<g clip-path="url(#clip0_946_60)">
<rect width="1200" height="630" fill="white"/>
<rect x="68.8354" width="1062.06" height="478.51" fill="black"/>
<path fill-rule="evenodd" clip-rule="evenodd" d="M-70.2566 -46H1257.26V487.263H-70.2566V-46ZM137.68 283.651C137.68 218.244 190.703 165.222 256.11 165.222H355.473C420.88 165.222 473.902 218.244 473.902 283.651V480.244H137.68V283.651ZM827.225 165.222C761.818 165.222 708.795 218.244 708.795 283.651V480.244H1045.02V283.651C1045.02 218.244 991.995 165.222 926.588 165.222H827.225Z" fill="#242424"/>
<rect x="0.364718" y="475.226" width="1199.27" height="183.088" fill="#555555" stroke="black" stroke-width="0.729436"/>
<path d="M320.291 474.132H320.033L319.833 474.294L92.5391 658.112L90.9358 659.409H92.9978H1107H1109.01L1107.47 658.12L888.19 474.302L887.987 474.132H887.721H320.291Z" fill="#1E1E1E" stroke="black" stroke-width="1.45887"/>
<path d="M360.426 474.132H360.136L359.925 474.331L165.344 658.149L164.011 659.409H165.845H1033.91H1035.7L1034.42 658.158L846.699 474.34L846.487 474.132H846.189H360.426Z" fill="#3B3B3B" stroke="black" stroke-width="1.45887"/>
<path d="M413.512 474.132H413.168L412.949 474.398L261.575 658.215L260.592 659.409H262.138H937.452H938.963L938.023 658.225L791.985 474.408L791.766 474.132H791.414H413.512Z" fill="#1E1E1E" stroke="black" stroke-width="1.45887"/>
<path d="M455.367 474.132H454.968L454.753 474.468L336.883 658.285L336.163 659.409H337.497H863.339H864.648L863.959 658.295L750.245 474.478L750.031 474.132H749.625H455.367Z" fill="#3B3B3B" stroke="black" stroke-width="1.45887"/>
<path d="M271.605 194.761H370.496C436.685 194.761 490.341 248.417 490.341 314.605V566.474H151.761V314.605C151.761 248.417 205.417 194.761 271.605 194.761Z" fill="#D9D9D9" stroke="black" stroke-width="1.52174"/>
<rect x="273.574" y="268.823" width="95.6185" height="249.9" fill="#BAC0C2" stroke="black" stroke-width="1.52174"/>
<rect x="151.761" y="533.888" width="338.58" height="32.5859" fill="#BAC0C2" stroke="black" stroke-width="1.52174"/>
<rect x="151.761" y="550.454" width="338.58" height="16.0193" fill="#BAC0C2" stroke="black" stroke-width="1.52174"/>
<rect x="273.574" y="222.046" width="95.9286" height="31.6114" fill="white" stroke="black" stroke-width="1.52174"/>
<rect x="293.064" y="291.239" width="56.9484" height="130.036" rx="11.2997" fill="#D6EFF8" stroke="black" stroke-width="1.52174"/>
<path d="M258.409 222.049V471.946H212.576L176.123 417.417V305.092C176.123 259.481 212.894 222.458 258.409 222.049Z" fill="#BAC0C2" stroke="black" stroke-width="1.52174"/>
<path d="M381.743 222.05V471.946H425.928L461.105 417.423V302.169C461.105 258.172 425.644 222.458 381.743 222.05Z" fill="#BAC0C2" stroke="black" stroke-width="1.52174"/>
<rect x="396" y="291.392" width="49.4564" height="59.3477" rx="11.2997" fill="#838383" stroke="#3B3B3B" stroke-width="1.52174"/>
<circle cx="216.779" cy="321.175" r="29.936" fill="#E70000" stroke="black" stroke-width="1.52174"/>
<mask id="path-18-inside-1_946_60" fill="white">
<path d="M450.172 500.856C450.172 483.9 446.833 467.109 440.344 451.443C433.855 435.778 424.344 421.543 412.354 409.553C400.364 397.563 386.129 388.052 370.464 381.563C354.798 375.074 338.007 371.734 321.051 371.734C304.094 371.734 287.304 375.074 271.638 381.563C255.972 388.052 241.738 397.563 229.748 409.553C217.758 421.543 208.247 435.778 201.758 451.443C195.269 467.109 191.929 483.9 191.929 500.856L203.392 500.856C203.392 485.405 206.436 470.105 212.349 455.83C218.261 441.555 226.928 428.585 237.854 417.659C248.779 406.733 261.75 398.067 276.025 392.154C290.3 386.241 305.6 383.198 321.051 383.198C336.502 383.198 351.802 386.241 366.077 392.154C380.352 398.067 393.322 406.733 404.248 417.659C415.174 428.585 423.84 441.555 429.753 455.83C435.666 470.105 438.709 485.405 438.709 500.856H450.172Z"/>
</mask>
<path d="M450.172 500.856C450.172 483.9 446.833 467.109 440.344 451.443C433.855 435.778 424.344 421.543 412.354 409.553C400.364 397.563 386.129 388.052 370.464 381.563C354.798 375.074 338.007 371.734 321.051 371.734C304.094 371.734 287.304 375.074 271.638 381.563C255.972 388.052 241.738 397.563 229.748 409.553C217.758 421.543 208.247 435.778 201.758 451.443C195.269 467.109 191.929 483.9 191.929 500.856L203.392 500.856C203.392 485.405 206.436 470.105 212.349 455.83C218.261 441.555 226.928 428.585 237.854 417.659C248.779 406.733 261.75 398.067 276.025 392.154C290.3 386.241 305.6 383.198 321.051 383.198C336.502 383.198 351.802 386.241 366.077 392.154C380.352 398.067 393.322 406.733 404.248 417.659C415.174 428.585 423.84 441.555 429.753 455.83C435.666 470.105 438.709 485.405 438.709 500.856H450.172Z" fill="#838383" stroke="black" stroke-width="3.04347" mask="url(#path-18-inside-1_946_60)"/>
<path d="M282.089 233.941H287.482V235.166H285.398V242.52H284.173V235.166H282.089V233.941ZM294.095 242.52H292.747L291.19 239.088H289.928V242.52H288.702V233.941H291.889C293.114 233.941 294.095 234.921 294.095 236.147V236.882C294.095 237.899 293.421 238.745 292.489 239.002L294.095 242.52ZM289.928 237.862H291.889C292.44 237.862 292.869 237.433 292.869 236.882V236.147C292.869 235.595 292.44 235.166 291.889 235.166H289.928V237.862ZM298.502 241.282C299.041 241.282 299.483 240.841 299.483 240.301V236.147C299.483 235.595 299.054 235.166 298.502 235.166H297.522C296.97 235.166 296.541 235.607 296.541 236.147V240.301C296.541 240.841 296.982 241.282 297.522 241.282H298.502ZM295.316 240.301V236.147C295.316 234.921 296.308 233.941 297.522 233.941H298.502C299.728 233.941 300.708 234.921 300.708 236.147V240.301C300.708 241.515 299.728 242.52 298.502 242.52H297.522C296.308 242.52 295.316 241.515 295.316 240.301ZM307.321 240.301C307.321 241.515 306.329 242.52 305.115 242.52H304.135C302.909 242.52 301.929 241.515 301.929 240.301V233.941H303.154V240.301C303.154 240.841 303.596 241.282 304.135 241.282H305.115C305.655 241.282 306.096 240.841 306.096 240.301V233.941H307.321V240.301ZM313.689 236.637C313.689 237.201 313.481 237.728 313.126 238.108C313.616 238.512 313.935 239.125 313.935 239.823V240.314C313.935 241.539 312.954 242.52 311.729 242.52H308.542V233.941H311.483C312.709 233.941 313.689 234.921 313.689 236.147V236.637ZM309.768 241.294H311.729C312.28 241.294 312.709 240.865 312.709 240.314V239.823C312.709 239.272 312.28 238.843 311.729 238.843H309.768V241.294ZM309.768 237.617H311.483C312.035 237.617 312.464 237.188 312.464 236.637V236.147C312.464 235.595 312.035 235.166 311.483 235.166H309.768V237.617ZM316.381 233.941V241.294H320.548V242.52H315.155V233.941H316.381ZM327.161 233.941V235.166H322.994V237.409H326.671V238.634H322.994V241.294H327.161V242.52H321.769V233.941H327.161ZM337.36 239.063L336.221 236.637V242.52H334.995V233.941H336.221L337.691 237.139L339.162 233.941H340.388V242.52H339.162V236.637L338.022 239.063H337.36ZM342.834 242.52H341.608V233.941H342.834V237.617H343.3L345.555 233.941H347.001L344.366 238.23L347.001 242.52H345.555L343.3 238.843H342.834V242.52ZM353.614 242.52H352.266L350.71 239.088H349.447V242.52H348.222V233.941H351.408C352.634 233.941 353.614 234.921 353.614 236.147V236.882C353.614 237.899 352.94 238.745 352.009 239.002L353.614 242.52ZM349.447 237.862H351.408C351.96 237.862 352.389 237.433 352.389 236.882V236.147C352.389 235.595 351.96 235.166 351.408 235.166H349.447V237.862ZM356.857 241.294H358.205V242.52H356.857V241.294Z" fill="black"/>
<path d="M814.605 194.761H913.496C979.685 194.761 1033.34 248.417 1033.34 314.605V566.474H694.761V314.605C694.761 248.417 748.417 194.761 814.605 194.761Z" fill="#D9D9D9" stroke="black" stroke-width="1.52174"/>
<rect x="816.574" y="268.823" width="95.6185" height="249.9" fill="#BAC0C2" stroke="black" stroke-width="1.52174"/>
<rect x="694.761" y="533.888" width="338.58" height="32.5859" fill="#BAC0C2" stroke="black" stroke-width="1.52174"/>
<rect x="694.761" y="550.454" width="338.58" height="16.0193" fill="#BAC0C2" stroke="black" stroke-width="1.52174"/>
<rect x="816.574" y="222.046" width="95.9286" height="31.6114" fill="white" stroke="black" stroke-width="1.52174"/>
<rect x="836.064" y="291.239" width="56.9484" height="130.036" rx="11.2997" fill="#D6EFF8" stroke="black" stroke-width="1.52174"/>
<path d="M801.409 222.049V471.946H755.576L719.123 417.417V305.092C719.123 259.481 755.894 222.458 801.409 222.049Z" fill="#BAC0C2" stroke="black" stroke-width="1.52174"/>
<path d="M924.744 222.05V471.946H968.929L1004.11 417.423V302.169C1004.11 258.172 968.644 222.458 924.744 222.05Z" fill="#BAC0C2" stroke="black" stroke-width="1.52174"/>
<rect x="938.999" y="291.392" width="49.4564" height="59.3477" rx="11.2997" fill="#838383" stroke="black" stroke-width="1.52174"/>
<circle cx="759.779" cy="321.175" r="29.936" fill="#11760E" stroke="black" stroke-width="1.52174"/>
<mask id="path-30-inside-2_946_60" fill="white">
<path d="M993.172 379.117C993.172 396.073 989.833 412.864 983.344 428.529C976.855 444.195 967.344 458.429 955.354 470.419C943.364 482.409 929.129 491.921 913.464 498.409C897.798 504.898 881.007 508.238 864.051 508.238C847.094 508.238 830.304 504.898 814.638 498.409C798.972 491.921 784.738 482.409 772.748 470.419C760.758 458.429 751.247 444.195 744.758 428.529C738.269 412.864 734.929 396.073 734.929 379.117L746.392 379.117C746.392 394.568 749.436 409.868 755.349 424.143C761.261 438.418 769.928 451.388 780.854 462.314C791.779 473.239 804.75 481.906 819.025 487.819C833.3 493.732 848.6 496.775 864.051 496.775C879.502 496.775 894.802 493.732 909.077 487.819C923.352 481.906 936.322 473.239 947.248 462.314C958.174 451.388 966.84 438.418 972.753 424.143C978.666 409.868 981.709 394.568 981.709 379.117H993.172Z"/>
</mask>
<path d="M993.172 379.117C993.172 396.073 989.833 412.864 983.344 428.529C976.855 444.195 967.344 458.429 955.354 470.419C943.364 482.409 929.129 491.921 913.464 498.409C897.798 504.898 881.007 508.238 864.051 508.238C847.094 508.238 830.304 504.898 814.638 498.409C798.972 491.921 784.738 482.409 772.748 470.419C760.758 458.429 751.247 444.195 744.758 428.529C738.269 412.864 734.929 396.073 734.929 379.117L746.392 379.117C746.392 394.568 749.436 409.868 755.349 424.143C761.261 438.418 769.928 451.388 780.854 462.314C791.779 473.239 804.75 481.906 819.025 487.819C833.3 493.732 848.6 496.775 864.051 496.775C879.502 496.775 894.802 493.732 909.077 487.819C923.352 481.906 936.322 473.239 947.248 462.314C958.174 451.388 966.84 438.418 972.753 424.143C978.666 409.868 981.709 394.568 981.709 379.117H993.172Z" fill="#838383" stroke="black" stroke-width="3.04347" mask="url(#path-30-inside-2_946_60)"/>
<path d="M827.418 237.899H830.482V240.301C830.482 241.515 829.501 242.52 828.276 242.52H827.295C826.082 242.52 825.089 241.515 825.089 240.301V236.147C825.089 234.921 826.082 233.941 827.295 233.941H828.276C829.501 233.941 830.482 234.921 830.482 236.147V236.821H829.256V236.147C829.256 235.595 828.827 235.166 828.276 235.166H827.295C826.744 235.166 826.315 235.607 826.315 236.147V240.301C826.315 240.841 826.756 241.282 827.295 241.282H828.276C828.815 241.282 829.256 240.841 829.256 240.301V239.125H827.418V237.899ZM837.095 242.52H835.747L834.19 239.088H832.928V242.52H831.702V233.941H834.889C836.114 233.941 837.095 234.921 837.095 236.147V236.882C837.095 237.899 836.421 238.745 835.489 239.002L837.095 242.52ZM832.928 237.862H834.889C835.44 237.862 835.869 237.433 835.869 236.882V236.147C835.869 235.595 835.44 235.166 834.889 235.166H832.928V237.862ZM843.708 233.941V235.166H839.541V237.409H843.218V238.634H839.541V241.294H843.708V242.52H838.316V233.941H843.708ZM846.154 242.52H844.929V239.701L847.012 233.941H848.238L850.321 239.701V242.52H849.096V240.534H846.154V242.52ZM846.375 239.309H848.875L847.637 235.877H847.613L846.375 239.309ZM851.542 233.941H856.935V235.166H854.851V242.52H853.626V235.166H851.542V233.941ZM864.769 239.75H865.994V240.24C865.994 240.816 866.472 241.294 867.048 241.294H867.869C868.494 241.294 868.936 240.902 868.936 240.363C868.936 238.671 864.891 238.304 864.891 235.975C864.891 234.774 865.835 233.941 867.171 233.941H867.747C869.009 233.941 870.039 234.958 870.039 236.22V236.588H868.813V236.22C868.813 235.632 868.335 235.166 867.747 235.166H867.171C866.509 235.166 866.117 235.473 866.117 235.975C866.117 237.274 870.161 237.777 870.161 240.363C870.161 241.588 869.168 242.52 867.869 242.52H867.048C865.786 242.52 864.769 241.502 864.769 240.24V239.75ZM871.382 233.941H876.774V235.166H874.691V242.52H873.465V235.166H871.382V233.941ZM883.388 242.52H882.039L880.483 239.088H879.221V242.52H877.995V233.941H881.182C882.407 233.941 883.388 234.921 883.388 236.147V236.882C883.388 237.899 882.714 238.745 881.782 239.002L883.388 242.52ZM879.221 237.862H881.182C881.733 237.862 882.162 237.433 882.162 236.882V236.147C882.162 235.595 881.733 235.166 881.182 235.166H879.221V237.862ZM890.001 233.941V235.166H885.834V237.409H889.511V238.634H885.834V241.294H890.001V242.52H884.608V233.941H890.001ZM896.614 233.941V235.166H892.447V237.409H896.124V238.634H892.447V241.294H896.614V242.52H891.222V233.941H896.614ZM897.835 233.941H903.227V235.166H901.144V242.52H899.918V235.166H897.835V233.941Z" fill="black"/>
<path d="M505.21 471.833H504.762L504.619 472.257L451.409 629.483L451.13 630.307H452H689.38H690.24L689.973 629.489L638.639 472.263L638.499 471.833H638.046H505.21Z" fill="#CF9C2B" stroke="black" stroke-width="1.24783"/>
<path d="M549.887 471.833H549.439L549.296 472.257L496.086 629.483L495.807 630.307H496.677H734.057H734.917L734.65 629.489L683.316 472.263L683.176 471.833H682.723H549.887Z" fill="#CF9C2B" stroke="black" stroke-width="1.24783"/>
<path d="M527.224 471.833H526.777L526.633 472.255L472.941 629.481L472.659 630.307H473.531H713.064H713.927L713.657 629.488L661.857 472.262L661.716 471.833H661.265H527.224Z" fill="#696969" stroke="black" stroke-width="1.24783"/>
<rect x="544.583" y="304" width="90.9687" height="168.456" fill="black"/>
<rect x="123" y="68" width="54.168" height="54.168" rx="27.084" fill="#006CB7"/>
<path d="M142.4 108.084H137.087V80.7937H145.381L150.343 102.252L155.268 80.7937H163.47V108.084H158.156V89.6251C158.156 89.0943 158.162 88.3537 158.175 87.4033C158.187 86.4406 158.193 85.7 158.193 85.1816L153.028 108.084H147.492L142.363 85.1816C142.363 85.7 142.37 86.4406 142.382 87.4033C142.394 88.3537 142.4 89.0943 142.4 89.6251V108.084Z" fill="white"/>
<rect x="179.718" y="68" width="54.168" height="54.168" rx="27.084" fill="#006CB7"/>
<path d="M217.929 80.7937V85.6259H209.765V108.084H204.025V85.6259H195.823V80.7937H217.929Z" fill="white"/>
<rect x="236.437" y="68" width="54.168" height="54.168" rx="27.084" fill="#006CB7"/>
<path d="M268.687 102.474H258.633L256.745 108.084H250.783L260.522 80.7937H266.965L276.629 108.084H270.445L268.687 102.474ZM267.094 97.7714L263.688 87.033L260.17 97.7714H267.094Z" fill="white"/>
<rect x="309.174" y="68" width="54.168" height="54.168" rx="27.084" fill="#E70000"/>
<path d="M347.514 108.084H341.812L330.666 88.6993V108.084H325.353V80.7937H331.333L342.201 99.845V80.7937H347.514V108.084Z" fill="white"/>
<rect x="365.892" y="68" width="54.168" height="54.168" rx="27.084" fill="#E70000"/>
<path d="M398.142 102.474H388.088L386.2 108.084H380.238L389.977 80.7937H396.42L406.084 108.084H399.9L398.142 102.474ZM396.549 97.7714L393.143 87.033L389.625 97.7714H396.549Z" fill="white"/>
<rect x="422.611" y="68" width="54.168" height="54.168" rx="27.084" fill="#E70000"/>
<path d="M455.027 97.5678V80.7937H460.822V97.5678C460.822 100.468 460.371 102.727 459.47 104.344C457.792 107.306 454.589 108.788 449.861 108.788C445.134 108.788 441.925 107.306 440.234 104.344C439.333 102.727 438.882 100.468 438.882 97.5678V80.7937H444.677V97.5678C444.677 99.4439 444.899 100.814 445.344 101.678C446.035 103.209 447.541 103.974 449.861 103.974C452.169 103.974 453.669 103.209 454.36 101.678C454.805 100.814 455.027 99.4439 455.027 97.5678Z" fill="white"/>
<rect x="479.329" y="68" width="54.168" height="54.168" rx="27.084" fill="#E70000"/>
<path d="M511.282 107.417C509.777 108.343 507.925 108.806 505.728 108.806C502.112 108.806 499.149 107.553 496.841 105.048C494.434 102.53 493.231 99.086 493.231 94.7165C493.231 90.2977 494.447 86.7553 496.878 84.0892C499.31 81.4231 502.525 80.0901 506.524 80.0901C509.993 80.0901 512.776 80.9726 514.874 82.7377C516.985 84.4904 518.194 86.6813 518.503 89.3103H512.893C512.461 87.4465 511.406 86.1443 509.727 85.4038C508.789 84.9964 507.746 84.7928 506.598 84.7928C504.401 84.7928 502.593 85.6259 501.173 87.2922C499.766 88.9462 499.063 91.4395 499.063 94.7721C499.063 98.1294 499.828 100.505 501.359 101.9C502.889 103.295 504.63 103.992 506.58 103.992C508.493 103.992 510.06 103.443 511.282 102.344C512.504 101.234 513.257 99.7833 513.541 97.9936H507.228V93.439H518.596V108.084H514.819L514.245 104.677C513.146 105.973 512.159 106.887 511.282 107.417Z" fill="white"/>
<rect x="536.048" y="68" width="54.168" height="54.168" rx="27.084" fill="#E70000"/>
<path d="M568.593 108.084V95.9015H557.929V108.084H552.282V80.7937H557.929V91.1988H568.593V80.7937H574.259V108.084H568.593Z" fill="white"/>
<rect x="592.766" y="68" width="54.168" height="54.168" rx="27.084" fill="#E70000"/>
<path d="M630.977 80.7937V85.6259H622.812V108.084H617.073V85.6259H608.871V80.7937H630.977Z" fill="white"/>
<rect x="649.485" y="68" width="54.168" height="54.168" rx="27.084" fill="#E70000"/>
<path d="M688.844 80.7937L679.716 97.827V108.084H674.014V97.827L664.571 80.7937H671.292L676.957 92.6799L682.382 80.7937H688.844Z" fill="white"/>
<rect x="722.221" y="68" width="54.168" height="54.168" rx="27.084" fill="#FFC801"/>
<path d="M749.509 108.843C745.608 108.843 742.628 107.782 740.566 105.659C737.802 103.054 736.419 99.302 736.419 94.4018C736.419 89.4029 737.802 85.6506 740.566 83.145C742.628 81.022 745.608 79.9605 749.509 79.9605C753.409 79.9605 756.39 81.022 758.451 83.145C761.204 85.6506 762.58 89.4029 762.58 94.4018C762.58 99.302 761.204 103.054 758.451 105.659C756.39 107.782 753.409 108.843 749.509 108.843ZM754.897 101.511C756.217 99.845 756.878 97.4752 756.878 94.4018C756.878 91.3407 756.211 88.9771 754.878 87.3107C753.557 85.6321 751.768 84.7928 749.509 84.7928C747.25 84.7928 745.448 85.6259 744.103 87.2922C742.757 88.9585 742.085 91.3284 742.085 94.4018C742.085 97.4752 742.757 99.845 744.103 101.511C745.448 103.178 747.25 104.011 749.509 104.011C751.768 104.011 753.564 103.178 754.897 101.511Z" fill="black"/>
<rect x="778.94" y="68" width="54.168" height="54.168" rx="27.084" fill="#FFC801"/>
<path d="M806.801 97.3826H800.914V108.084H795.341V80.7937H808.727C810.64 80.8307 812.109 81.0652 813.133 81.4972C814.17 81.9292 815.046 82.5649 815.762 83.4042C816.355 84.0954 816.824 84.8607 817.169 85.7C817.515 86.5393 817.688 87.4959 817.688 88.5697C817.688 89.8657 817.361 91.1432 816.707 92.4022C816.052 93.6489 814.972 94.5314 813.466 95.0498C814.725 95.5559 815.614 96.2779 816.133 97.216C816.663 98.1417 816.929 99.5612 816.929 101.474V103.307C816.929 104.554 816.978 105.399 817.077 105.844C817.225 106.547 817.571 107.066 818.114 107.399V108.084H811.837C811.664 107.479 811.541 106.992 811.467 106.621C811.319 105.856 811.239 105.072 811.226 104.27L811.189 101.734C811.165 99.9932 810.844 98.8329 810.226 98.2528C809.622 97.6727 808.48 97.3826 806.801 97.3826ZM810.263 92.4207C811.399 91.9023 811.967 90.8779 811.967 89.3473C811.967 87.6934 811.418 86.5825 810.319 86.0147C809.702 85.6938 808.776 85.5334 807.542 85.5334H800.914V92.8651H807.375C808.659 92.8651 809.622 92.717 810.263 92.4207Z" fill="black"/>
<rect x="851.677" y="68" width="54.168" height="54.168" rx="27.084" fill="#11760E"/>
<path d="M890.017 108.084H884.315L873.169 88.6993V108.084H867.855V80.7937H873.836L884.704 99.845V80.7937H890.017V108.084Z" fill="white"/>
<rect x="908.395" y="68" width="54.168" height="54.168" rx="27.084" fill="#11760E"/>
<path d="M932.646 80.7937H938.312V108.084H932.646V80.7937Z" fill="white"/>
<rect x="965.113" y="68" width="54.168" height="54.168" rx="27.084" fill="#11760E"/>
<path d="M1000.64 106.047C998.603 107.911 995.999 108.843 992.827 108.843C988.902 108.843 985.816 107.584 983.57 105.066C981.323 102.536 980.2 99.0674 980.2 94.661C980.2 89.8966 981.477 86.2246 984.032 83.6449C986.254 81.3985 989.081 80.2752 992.512 80.2752C997.104 80.2752 1000.46 81.7811 1002.58 84.7928C1003.76 86.4838 1004.39 88.1809 1004.47 89.8843H998.77C998.4 88.5759 997.924 87.5885 997.344 86.9219C996.307 85.737 994.771 85.1446 992.734 85.1446C990.661 85.1446 989.025 85.9839 987.828 87.6625C986.631 89.3288 986.032 91.6925 986.032 94.7536C986.032 97.8146 986.661 100.11 987.92 101.641C989.192 103.159 990.803 103.918 992.753 103.918C994.752 103.918 996.277 103.264 997.326 101.956C997.906 101.252 998.387 100.197 998.77 98.7897H1004.42C1003.92 101.764 1002.66 104.184 1000.64 106.047Z" fill="white"/>
<rect x="1021.83" y="68" width="54.168" height="54.168" rx="27.084" fill="#11760E"/>
<path d="M1058.15 96.1607H1044.9V103.178H1060.01V108.084H1039.33V80.7937H1059.34V85.6259H1044.9V91.421H1058.15V96.1607Z" fill="white"/>
</g>
<defs>
<clipPath id="clip0_946_60">
<rect width="1200" height="630" fill="white"/>
</clipPath>
</defs>
</svg>
