<svg width="123" height="60" viewBox="0 0 123 60" fill="none" xmlns="http://www.w3.org/2000/svg">
<rect width="60" height="60" rx="30" fill="#FFC801"/>
<path d="M30.2256 44.8408C25.9053 44.8408 22.6035 43.665 20.3203 41.3135C17.2578 38.4287 15.7266 34.2725 15.7266 28.8447C15.7266 23.3076 17.2578 19.1514 20.3203 16.376C22.6035 14.0244 25.9053 12.8486 30.2256 12.8486C34.5459 12.8486 37.8477 14.0244 40.1309 16.376C43.1797 19.1514 44.7041 23.3076 44.7041 28.8447C44.7041 34.2725 43.1797 38.4287 40.1309 41.3135C37.8477 43.665 34.5459 44.8408 30.2256 44.8408ZM36.1934 36.7197C37.6563 34.874 38.3877 32.249 38.3877 28.8447C38.3877 25.4541 37.6494 22.8359 36.1729 20.9902C34.71 19.1309 32.7275 18.2012 30.2256 18.2012C27.7236 18.2012 25.7275 19.124 24.2373 20.9697C22.7471 22.8154 22.002 25.4404 22.002 28.8447C22.002 32.249 22.7471 34.874 24.2373 36.7197C25.7275 38.5654 27.7236 39.4883 30.2256 39.4883C32.7275 39.4883 34.7168 38.5654 36.1934 36.7197Z" fill="black"/>
<rect x="62.8252" width="60" height="60" rx="30" fill="#FFC801"/>
<path d="M93.6865 32.1465H87.165V44H80.9922V13.7715H95.8193C97.9385 13.8125 99.5654 14.0723 100.7 14.5508C101.849 15.0293 102.819 15.7334 103.612 16.6631C104.269 17.4287 104.788 18.2764 105.171 19.206C105.554 20.1357 105.745 21.1953 105.745 22.3848C105.745 23.8203 105.383 25.2353 104.658 26.6299C103.934 28.0107 102.737 28.9883 101.069 29.5625C102.464 30.123 103.448 30.9228 104.022 31.9619C104.61 32.9873 104.904 34.5596 104.904 36.6787V38.709C104.904 40.0898 104.959 41.0264 105.068 41.5186C105.232 42.2979 105.615 42.8721 106.217 43.2412V44H99.2647C99.0732 43.3301 98.9365 42.79 98.8545 42.3799C98.6904 41.5322 98.6016 40.6641 98.5879 39.7754L98.5469 36.9658C98.5195 35.0381 98.1641 33.7529 97.4805 33.1103C96.8105 32.4678 95.5459 32.1465 93.6865 32.1465ZM97.5215 26.6504C98.7793 26.0762 99.4082 24.9414 99.4082 23.2461C99.4082 21.4141 98.7998 20.1836 97.583 19.5547C96.8994 19.1992 95.874 19.0215 94.5068 19.0215H87.165V27.1426H94.3223C95.7441 27.1426 96.8105 26.9785 97.5215 26.6504Z" fill="black"/>
</svg>
