<svg width="530" height="524" viewBox="0 0 530 524" fill="none" xmlns="http://www.w3.org/2000/svg">
<path d="M101.852 269H101.17L100.921 269.635L2.06906 521.635L1.53354 523H3H444H445.448L444.935 521.646L349.568 269.646L349.324 269H348.633H101.852Z" fill="#CF9C2B" stroke="black" stroke-width="2"/>
<path d="M184.852 269H184.17L183.921 269.635L85.0691 521.635L84.5335 523H86H527H528.448L527.935 521.646L432.568 269.646L432.324 269H431.633H184.852Z" fill="#CF9C2B" stroke="black" stroke-width="2"/>
<path d="M142.749 269H142.069L141.819 269.632L42.0702 521.632L41.5287 523H43H488H489.452L488.934 521.643L392.702 269.643L392.456 269H391.768H142.749Z" fill="#696969" stroke="black" stroke-width="2"/>
<rect x="175" width="169" height="270" fill="black"/>
</svg>
