<svg width="1440" height="256" viewBox="0 0 1440 256" fill="none" xmlns="http://www.w3.org/2000/svg">
<rect x="-10.5" y="2.5" width="1470" height="251" fill="#555555" stroke="black"/>
<path d="M381.624 1H381.239L380.953 1.25835L102.329 253.258L100.404 255H103H1346H1348.53L1346.68 253.27L1077.88 1.27046L1077.59 1H1077.2H381.624Z" fill="#1E1E1E" stroke="black" stroke-width="2"/>
<path d="M430.822 1H430.392L430.096 1.31258L191.573 253.313L189.975 255H192.299H1256.4H1258.67L1257.14 253.326L1027.03 1.32569L1026.73 1H1026.29H430.822Z" fill="#3B3B3B" stroke="black" stroke-width="2"/>
<path d="M495.898 1H495.393L495.093 1.40706L309.533 253.407L308.36 255H310.338H1138.16H1140.1L1138.98 253.421L959.958 1.42087L959.659 1H959.142H495.898Z" fill="#1E1E1E" stroke="black" stroke-width="2"/>
<path d="M547.205 1H546.625L546.337 1.50259L401.848 253.503L400.99 255H402.716H1047.31H1049.01L1048.19 253.516L908.791 1.51596L908.505 1H907.915H547.205Z" fill="#3B3B3B" stroke="black" stroke-width="2"/>
</svg>
