<svg width="182" height="77" viewBox="0 0 182 77" fill="none" xmlns="http://www.w3.org/2000/svg">
<path d="M22.3986 21.4879C19.8885 22.4416 20.0332 28.5418 20.4194 31.4726C12.9372 36.2261 11.8422 39.0754 12.23 39.9058L5.62935 48.3779C4.67957 48.4462 2.98223 49.3465 3.79117 52.4011C4.60011 55.4557 13.2711 56.9933 17.5054 57.3803C19.1232 56.7788 24.1905 55.1211 31.5177 53.3015C38.845 51.4819 43.0736 54.2338 44.272 55.8372L42.8992 61.4023L39.4389 63.2668L35.6912 64.3132L37.2155 66.4827L42.5801 66.64L46.4142 65.478L51.0153 61.3653C51.0888 60.2247 52.9727 58.4333 59.9205 60.3927C68.6052 62.842 94.5818 52.2537 96.8088 53.6032C98.5903 54.6828 103.56 54.6709 105.822 54.53L103.766 58.3647L97.7256 61.9975L97.9662 64.201L100.74 66.0216L105.04 64.5963C104.822 63.8061 105.24 61.3466 108.658 57.8303C112.932 53.435 110.966 48.1283 111.116 45.8821C111.237 44.0851 113.754 43.435 114.997 43.3346C139.981 46.6228 154.948 50.4185 154.948 50.4185L180.99 57.1685C180.99 57.1685 165.652 50.5018 152.637 47.9453C142.582 45.9703 119.851 39.7252 115.38 37.7715C107.241 14.0266 76.8583 6.93928 62.5225 13.4955C51.0537 18.7405 33.2915 24.51 25.8439 26.7391C23.4128 26.2402 22.5341 23.0304 22.3986 21.4879Z" fill="#242424"/>
<path d="M22.3986 21.4879C19.8885 22.4416 20.0332 28.5418 20.4194 31.4726C12.9372 36.2261 11.8422 39.0754 12.23 39.9058L5.62935 48.3779C4.67957 48.4462 2.98223 49.3465 3.79117 52.4011C4.60011 55.4557 13.2711 56.9933 17.5054 57.3803C19.1232 56.7788 24.1905 55.1211 31.5177 53.3015C38.845 51.4819 43.0736 54.2338 44.272 55.8372L42.8992 61.4023L39.4389 63.2668L35.6912 64.3132L37.2155 66.4827L42.5801 66.64L46.4142 65.478L51.0153 61.3653C51.0888 60.2247 52.9727 58.4333 59.9205 60.3927C68.6052 62.842 94.5818 52.2537 96.8088 53.6032C98.5903 54.6828 103.56 54.6709 105.822 54.53L103.766 58.3647L97.7256 61.9975L97.9662 64.201L100.74 66.0216L105.04 64.5963C104.822 63.8061 105.24 61.3466 108.658 57.8303C112.932 53.435 110.966 48.1283 111.116 45.8821C111.237 44.0851 113.754 43.435 114.997 43.3346C139.981 46.6228 154.948 50.4185 154.948 50.4185L180.99 57.1685C180.99 57.1685 165.652 50.5018 152.637 47.9453C142.582 45.9703 119.851 39.7252 115.38 37.7715C107.241 14.0266 76.8583 6.93928 62.5225 13.4955C51.0537 18.7405 33.2915 24.51 25.8439 26.7391C23.4128 26.2402 22.5341 23.0304 22.3986 21.4879Z" stroke="black" stroke-width="0.211105"/>
<path d="M22.3986 21.4879C19.8885 22.4416 20.0332 28.5418 20.4194 31.4726C12.9372 36.2261 11.8422 39.0754 12.23 39.9058L5.62935 48.3779C4.67957 48.4462 2.98223 49.3465 3.79117 52.4011C4.60011 55.4557 13.2711 56.9933 17.5054 57.3803C19.1232 56.7788 24.1905 55.1211 31.5177 53.3015C38.845 51.4819 43.0736 54.2338 44.272 55.8372L42.8992 61.4023L39.4389 63.2668L35.6912 64.3132L37.2155 66.4827L42.5801 66.64L46.4142 65.478L51.0153 61.3653C51.0888 60.2247 52.9727 58.4333 59.9205 60.3927C68.6052 62.842 94.5818 52.2537 96.8088 53.6032C98.5903 54.6828 103.56 54.6709 105.822 54.53L103.766 58.3647L97.7256 61.9975L97.9662 64.201L100.74 66.0216L105.04 64.5963C104.822 63.8061 105.24 61.3466 108.658 57.8303C112.932 53.435 110.966 48.1283 111.116 45.8821C111.237 44.0851 113.754 43.435 114.997 43.3346C139.981 46.6228 154.948 50.4185 154.948 50.4185L180.99 57.1685C180.99 57.1685 165.652 50.5018 152.637 47.9453C142.582 45.9703 119.851 39.7252 115.38 37.7715C107.241 14.0266 76.8583 6.93928 62.5225 13.4955C51.0537 18.7405 33.2915 24.51 25.8439 26.7391C23.4128 26.2402 22.5341 23.0304 22.3986 21.4879Z" stroke="black" stroke-opacity="0.2" stroke-width="0.211105"/>
<path d="M70.3948 23.9316L57.5601 36.7664L70.3948 49.6011" stroke="white" stroke-width="5.58032"/>
<path d="M59.1074 37.0879H88.901" stroke="white" stroke-width="5.71983"/>
</svg>
