<svg width="117" height="35" viewBox="0 0 117 35" fill="none" xmlns="http://www.w3.org/2000/svg">
<path d="M12.5886 6.84039C10.9423 7.43501 11.008 11.1613 11.2465 12.9501C6.33047 15.8899 5.60077 17.6358 5.85042 18.1413L1.49315 23.3488C0.871645 23.3951 -0.24273 23.9532 0.271792 25.8156C0.786314 27.6779 6.44996 28.5761 9.21746 28.7923C10.2784 28.4172 13.6004 27.3803 18.4012 26.2337C23.202 25.0871 25.9545 26.7483 26.7306 27.7222L25.8063 31.1288L23.5343 32.2843L21.0783 32.9415L22.0649 34.2597L25.5727 34.3303L28.0858 33.6021L31.1146 31.0675C31.1681 30.3703 32.4087 29.2669 36.9433 30.4309C42.6116 31.886 59.6512 25.2934 61.1013 26.1072C62.2613 26.7583 65.5117 26.7274 66.9919 26.6306L65.6284 28.9832L61.6609 31.2314L61.8078 32.5765L63.6131 33.6757L66.4325 32.7844C66.2934 32.3026 66.5785 30.798 68.831 28.6334C71.6467 25.9277 70.3862 22.6949 70.4955 21.3219C70.5829 20.2234 72.2321 19.8143 73.0458 19.747C89.37 21.6371 99.1406 23.8848 99.1406 23.8848L116.141 27.8848C116.141 27.8848 106.141 23.8848 97.6406 22.3848C91.0742 21.226 76.2377 17.5187 73.3225 16.3464C68.1126 1.87802 48.2754 -2.30739 38.8683 1.76641C31.3426 5.02544 19.6983 8.63492 14.8168 10.0323C13.2292 9.739 12.6698 7.78215 12.5886 6.84039Z" fill="#242424"/>
<path d="M12.5886 6.84039C10.9423 7.43501 11.008 11.1613 11.2465 12.9501C6.33047 15.8899 5.60077 17.6358 5.85042 18.1413L1.49315 23.3488C0.871645 23.3951 -0.24273 23.9532 0.271792 25.8156C0.786314 27.6779 6.44996 28.5761 9.21746 28.7923C10.2784 28.4172 13.6004 27.3803 18.4012 26.2337C23.202 25.0871 25.9545 26.7483 26.7306 27.7222L25.8063 31.1288L23.5343 32.2843L21.0783 32.9415L22.0649 34.2597L25.5727 34.3303L28.0858 33.6021L31.1146 31.0675C31.1681 30.3703 32.4087 29.2669 36.9433 30.4309C42.6116 31.886 59.6512 25.2934 61.1013 26.1072C62.2613 26.7583 65.5117 26.7274 66.9919 26.6306L65.6284 28.9832L61.6609 31.2314L61.8078 32.5765L63.6131 33.6757L66.4325 32.7844C66.2934 32.3026 66.5785 30.798 68.831 28.6334C71.6467 25.9277 70.3862 22.6949 70.4955 21.3219C70.5829 20.2234 72.2321 19.8143 73.0458 19.747C89.37 21.6371 99.1406 23.8848 99.1406 23.8848L116.141 27.8848C116.141 27.8848 106.141 23.8848 97.6406 22.3848C91.0742 21.226 76.2377 17.5187 73.3225 16.3464C68.1126 1.87802 48.2754 -2.30739 38.8683 1.76641C31.3426 5.02544 19.6983 8.63492 14.8168 10.0323C13.2292 9.739 12.6698 7.78215 12.5886 6.84039Z" stroke="black" stroke-width="0.128866"/>
<path d="M12.5886 6.84039C10.9423 7.43501 11.008 11.1613 11.2465 12.9501C6.33047 15.8899 5.60077 17.6358 5.85042 18.1413L1.49315 23.3488C0.871645 23.3951 -0.24273 23.9532 0.271792 25.8156C0.786314 27.6779 6.44996 28.5761 9.21746 28.7923C10.2784 28.4172 13.6004 27.3803 18.4012 26.2337C23.202 25.0871 25.9545 26.7483 26.7306 27.7222L25.8063 31.1288L23.5343 32.2843L21.0783 32.9415L22.0649 34.2597L25.5727 34.3303L28.0858 33.6021L31.1146 31.0675C31.1681 30.3703 32.4087 29.2669 36.9433 30.4309C42.6116 31.886 59.6512 25.2934 61.1013 26.1072C62.2613 26.7583 65.5117 26.7274 66.9919 26.6306L65.6284 28.9832L61.6609 31.2314L61.8078 32.5765L63.6131 33.6757L66.4325 32.7844C66.2934 32.3026 66.5785 30.798 68.831 28.6334C71.6467 25.9277 70.3862 22.6949 70.4955 21.3219C70.5829 20.2234 72.2321 19.8143 73.0458 19.747C89.37 21.6371 99.1406 23.8848 99.1406 23.8848L116.141 27.8848C116.141 27.8848 106.141 23.8848 97.6406 22.3848C91.0742 21.226 76.2377 17.5187 73.3225 16.3464C68.1126 1.87802 48.2754 -2.30739 38.8683 1.76641C31.3426 5.02544 19.6983 8.63492 14.8168 10.0323C13.2292 9.739 12.6698 7.78215 12.5886 6.84039Z" stroke="black" stroke-opacity="0.2" stroke-width="0.128866"/>
</svg>
