<svg width="1444" height="704" viewBox="0 0 1444 704" fill="none" xmlns="http://www.w3.org/2000/svg">
<rect x="226" y="649" width="1217" height="54" fill="#555555" stroke="black" stroke-width="2"/>
<rect x="1" y="-1" width="212.298" height="30.4348" transform="matrix(-1 0 0 1 527.896 437.701)" fill="#414141" stroke="black" stroke-width="2"/>
<rect x="1" y="-1" width="213.139" height="31.1639" transform="matrix(-1 0 0 1 560.702 467.701)" fill="#414141" stroke="black" stroke-width="2"/>
<rect x="1" y="-1" width="212.298" height="30.4348" transform="matrix(-1 0 0 1 592.667 498.701)" fill="#414141" stroke="black" stroke-width="2"/>
<rect x="1" y="-1" width="213.139" height="30.4348" transform="matrix(-1 0 0 1 625.474 528.701)" fill="#414141" stroke="black" stroke-width="2"/>
<rect x="1" y="-1" width="212.298" height="30.4348" transform="matrix(-1 0 0 1 657.438 558.701)" fill="#414141" stroke="black" stroke-width="2"/>
<rect x="1" y="-1" width="213.139" height="31.1639" transform="matrix(-1 0 0 1 690.246 588.701)" fill="#414141" stroke="black" stroke-width="2"/>
<rect x="1" y="-1" width="212.298" height="30.4348" transform="matrix(-1 0 0 1 721.985 619.701)" fill="#414141" stroke="black" stroke-width="2"/>
<rect x="1" y="-1" width="212.298" height="30.4348" transform="matrix(-1 0 0 1 303.298 225.701)" fill="#414141" stroke="black" stroke-width="2"/>
<rect x="1" y="-1" width="213.139" height="31.1639" transform="matrix(-1 0 0 1 336.104 255.701)" fill="#414141" stroke="black" stroke-width="2"/>
<rect x="1" y="-1" width="212.298" height="30.4348" transform="matrix(-1 0 0 1 368.069 286.701)" fill="#414141" stroke="black" stroke-width="2"/>
<rect x="1" y="-1" width="213.139" height="30.4348" transform="matrix(-1 0 0 1 400.875 316.701)" fill="#414141" stroke="black" stroke-width="2"/>
<rect x="1" y="-1" width="212.298" height="30.4348" transform="matrix(-1 0 0 1 432.841 346.701)" fill="#414141" stroke="black" stroke-width="2"/>
<rect x="1" y="-1" width="213.139" height="31.1639" transform="matrix(-1 0 0 1 465.648 376.701)" fill="#414141" stroke="black" stroke-width="2"/>
<rect x="1" y="-1" width="212.298" height="30.4348" transform="matrix(-1 0 0 1 497.613 407.701)" fill="#414141" stroke="black" stroke-width="2"/>
<rect x="1" y="-1" width="50" height="702" transform="matrix(-1 0 0 1 353 2)" fill="#555555" stroke="black" stroke-width="2"/>
<rect x="1" y="-1" width="238" height="702" transform="matrix(-1 0 0 1 240 2)" fill="#555555" stroke="black" stroke-width="2"/>
</svg>
